<?xml version="1.0" standalone="no"?>
<!DOCTYPE svg PUBLIC "-//W3C//DTD SVG 20010904//EN"
 "http://www.w3.org/TR/2001/REC-SVG-20010904/DTD/svg10.dtd">
<svg version="1.0" xmlns="http://www.w3.org/2000/svg"
 width="250.000000pt" height="250.000000pt" viewBox="0 0 250.000000 250.000000"
 preserveAspectRatio="xMidYMid meet">

<g transform="translate(0.000000,250.000000) scale(0.100000,-0.100000)"
fill="#000000" stroke="none">
<path d="M1123 2470 c-160 -17 -354 -79 -487 -156 -201 -118 -382 -309 -483
-509 -84 -166 -124 -339 -124 -540 0 -202 35 -354 122 -530 205 -415 628 -675
1099 -675 563 0 1045 372 1186 917 35 135 44 339 20 482 -29 174 -92 331 -195
486 -61 93 -217 249 -315 315 -241 162 -542 238 -823 210z m308 -25 c430 -64
796 -358 947 -759 96 -254 102 -546 18 -794 -99 -289 -315 -540 -586 -681
-467 -244 -1040 -157 -1415 214 -218 215 -336 481 -351 790 -27 548 339 1049
876 1200 159 44 345 55 511 30z"/>
<path d="M1255 2330 c0 -65 12 -65 17 0 2 29 -1 50 -7 50 -5 0 -10 -22 -10
-50z"/>
<path d="M1310 2365 c7 -9 15 -13 17 -11 7 7 -7 26 -19 26 -6 0 -6 -6 2 -15z"/>
<path d="M1090 2358 c0 -29 13 -88 19 -88 3 0 4 22 3 50 -2 27 -8 50 -13 50
-5 0 -9 -6 -9 -12z"/>
<path d="M1130 2366 c0 -2 7 -6 15 -10 8 -3 15 -1 15 4 0 6 -7 10 -15 10 -8 0
-15 -2 -15 -4z"/>
<path d="M1365 2361 c3 -6 1 -28 -4 -50 -7 -33 -6 -41 6 -41 8 0 12 3 9 8 -2
4 -1 26 4 50 6 33 4 42 -7 42 -8 0 -12 -4 -8 -9z"/>
<path d="M1440 2357 c0 -2 13 -28 30 -58 16 -30 30 -48 30 -42 0 18 -43 103
-52 103 -4 0 -8 -2 -8 -3z"/>
<path d="M964 2325 c-15 -23 -15 -27 0 -50 22 -33 27 -32 13 5 -9 23 -9 35 1
50 18 29 5 24 -14 -5z"/>
<path d="M1015 2333 c11 -10 15 -28 13 -49 -3 -26 -1 -31 9 -22 19 15 16 52
-5 71 -24 22 -38 22 -17 0z"/>
<path d="M1505 2340 c4 -6 11 -8 16 -5 14 9 11 15 -7 15 -8 0 -12 -5 -9 -10z"/>
<path d="M1125 2331 c-3 -5 -1 -12 5 -16 5 -3 10 1 10 9 0 18 -6 21 -15 7z"/>
<path d="M1285 2331 c-3 -5 -1 -12 5 -16 5 -3 10 1 10 9 0 18 -6 21 -15 7z"/>
<path d="M1568 2281 c-27 -30 -32 -41 -21 -45 8 -3 12 -2 9 2 -3 5 6 21 19 38
l24 29 1 -42 c0 -23 5 -45 10 -48 8 -5 9 10 4 47 -4 29 -8 54 -9 56 -1 1 -18
-16 -37 -37z"/>
<path d="M845 2300 c-3 -5 -1 -10 4 -10 6 0 11 5 11 10 0 6 -2 10 -4 10 -3 0
-8 -4 -11 -10z"/>
<path d="M1690 2286 c0 -8 14 -61 26 -105 3 -8 7 -12 10 -9 6 7 -16 100 -27
113 -5 5 -9 5 -9 1z"/>
<path d="M813 2249 c21 -18 36 -37 33 -45 -3 -8 0 -11 9 -8 20 8 0 47 -35 67
-45 27 -48 20 -7 -14z"/>
<path d="M1420 2270 c0 -5 5 -10 10 -10 6 0 10 5 10 10 0 6 -4 10 -10 10 -5 0
-10 -4 -10 -10z"/>
<path d="M735 2250 c3 -5 11 -10 16 -10 6 0 7 5 4 10 -3 6 -11 10 -16 10 -6 0
-7 -4 -4 -10z"/>
<path d="M1747 2238 c-9 -31 -2 -33 11 -3 6 14 8 25 3 25 -5 0 -11 -10 -14
-22z"/>
<path d="M727 2196 c15 -25 30 -43 34 -40 9 5 -41 84 -53 84 -4 0 5 -20 19
-44z"/>
<path d="M681 2214 c0 -11 3 -14 6 -6 3 7 2 16 -1 19 -3 4 -6 -2 -5 -13z"/>
<path d="M1655 2211 c-3 -5 -1 -12 5 -16 5 -3 10 1 10 9 0 18 -6 21 -15 7z"/>
<path d="M1791 2194 c-25 -32 -25 -34 -7 -59 13 -18 14 -18 9 8 -10 50 49 91
66 45 5 -15 10 -18 15 -9 9 14 -20 40 -46 41 -9 0 -26 -12 -37 -26z"/>
<path d="M1087 2195 c-374 -71 -659 -331 -759 -693 -18 -63 -22 -105 -22 -232
0 -169 10 -224 65 -353 165 -389 613 -627 1040 -552 147 25 293 84 364 146 68
60 31 146 -60 136 -28 -3 -54 3 -87 20 -89 44 -135 98 -173 202 -9 23 -14 29
-14 16 -1 -28 31 -94 64 -133 42 -50 24 -48 -26 3 -49 50 -99 136 -99 171 0
33 16 30 26 -3 6 -23 8 -25 12 -9 3 15 6 16 13 5 7 -9 8 -1 3 23 -5 32 -3 41
17 57 15 12 33 18 46 15 31 -8 67 30 60 64 -3 15 -7 35 -9 45 -2 13 9 25 38
41 70 37 134 122 134 177 0 28 5 38 24 47 19 9 25 8 30 -4 5 -12 10 -13 28 -2
23 12 29 14 61 16 10 1 29 14 43 29 l25 28 18 -24 c15 -20 25 -23 53 -18 52 8
108 34 108 50 0 14 -116 65 -125 55 -3 -2 19 -12 48 -23 66 -23 85 -39 37 -32
-36 5 -123 32 -150 46 -9 5 -45 1 -85 -10 -39 -10 -81 -18 -95 -18 -14 -1 -37
-8 -50 -17 -24 -16 -24 -16 -8 1 10 11 54 27 105 38 94 21 126 23 158 13 17
-6 23 1 43 56 16 46 19 65 11 72 -9 8 -10 7 -6 -5 8 -24 -7 -40 -49 -55 -44
-15 -52 -12 -34 13 7 10 1 5 -14 -10 -14 -16 -24 -33 -21 -38 4 -5 -6 -14 -21
-19 -34 -13 -46 -4 -13 10 l24 9 -25 -2 c-14 -2 -41 -13 -60 -25 -19 -12 -45
-22 -56 -22 -22 0 -75 -36 -72 -48 4 -12 -26 -52 -38 -52 -14 0 -55 -48 -44
-52 6 -2 5 -9 0 -18 -8 -13 -10 -13 -10 1 0 9 -9 24 -19 33 -18 17 -20 17 -30
-1 -10 -17 -12 -17 -30 5 -19 21 -38 31 -27 13 3 -5 -1 -14 -9 -21 -13 -10
-19 -10 -33 4 -20 17 -37 22 -28 7 9 -14 -22 -34 -41 -27 -15 6 -13 11 15 32
18 14 32 32 32 39 0 16 61 31 85 21 19 -7 20 16 0 54 -10 19 -29 33 -62 45
-70 24 -96 38 -101 55 -4 12 -2 12 14 -2 10 -9 39 -21 63 -28 62 -16 87 -35
111 -84 24 -51 25 -56 4 -56 -8 0 -12 -5 -9 -10 4 -6 12 -7 18 -3 6 4 26 6 44
4 34 -3 110 30 82 36 -8 2 -21 19 -28 38 -15 44 -55 91 -91 110 -15 8 -50 16
-78 17 l-50 3 14 28 c15 28 28 34 39 17 9 -15 41 -12 55 4 9 12 7 18 -9 33
-26 22 -26 30 -1 38 13 4 20 15 20 30 0 33 -13 38 -40 15 -13 -11 -28 -20 -34
-20 -6 0 -3 5 7 11 20 12 13 31 -8 22 -8 -3 -15 -1 -15 4 0 5 -9 9 -20 10 -14
1 -20 -4 -20 -18 0 -10 -7 -19 -15 -19 -18 0 -20 -16 -2 -23 6 -3 0 -6 -14 -6
-15 -1 -31 5 -37 12 -9 10 -4 17 18 31 49 28 38 76 -11 50 -27 -14 -46 -53
-40 -83 1 -7 -2 -10 -9 -6 -6 4 -9 13 -6 20 6 17 -25 29 -35 13 -6 -9 -11 -9
-23 2 -9 7 -19 10 -22 7 -3 -3 7 -12 23 -21 17 -9 22 -15 12 -16 -17 0 -56 37
-51 49 2 3 -5 8 -14 10 -12 2 -15 -1 -10 -13 3 -9 9 -23 12 -31 11 -27 -12
-16 -25 12 -9 20 -9 28 0 33 13 9 4 75 -11 85 -12 7 -12 -101 -1 -130 11 -28
3 -44 -20 -38 -21 6 -25 18 -9 28 12 8 13 48 1 60 -12 14 -25 59 -15 52 5 -3
7 17 5 45 -2 38 -6 47 -15 38 -16 -16 -11 -150 6 -161 19 -12 -4 -31 -33 -27
-17 2 -25 11 -28 28 l-3 25 23 -20 c13 -11 18 -13 12 -5 -7 8 -13 38 -13 67 0
36 -4 52 -12 50 -18 -3 -38 63 -32 108 4 29 3 37 -5 30 -6 -6 -11 -22 -12 -35
-2 -52 13 -186 24 -208 13 -27 -2 -48 -28 -38 -19 7 -48 69 -34 74 12 5 11 59
-1 67 -6 4 -8 15 -5 26 4 11 2 19 -4 19 -10 0 -16 -52 -15 -127 1 -24 -2 -30
-14 -25 -10 4 -13 1 -8 -7 5 -7 10 -33 12 -59 6 -54 5 -54 24 -41 11 8 12 12
3 16 -7 2 -13 9 -13 14 0 6 4 7 10 4 6 -3 7 1 4 9 -8 20 6 20 32 2 13 -10 33
-13 60 -9 56 7 108 -12 139 -50 14 -18 25 -27 25 -20 0 6 -4 15 -10 18 -5 3
-10 17 -10 31 0 27 20 34 21 7 0 -10 3 -44 5 -75 4 -61 -2 -73 -28 -54 -16 12
-25 37 -27 73 -1 7 -12 20 -26 29 -21 14 -31 15 -50 6 -14 -7 -25 -18 -25 -27
0 -16 -45 -21 -68 -7 -15 10 10 36 46 47 13 4 21 9 19 12 -9 8 -97 -35 -103
-51 -7 -19 -47 -21 -62 -3 -12 15 -13 99 -1 91 5 -3 10 -15 10 -27 1 -18 2
-19 6 -4 3 10 -2 29 -11 42 -9 13 -16 31 -16 40 0 8 -3 15 -7 15 -5 0 -8 -60
-8 -134 0 -134 0 -134 28 -160 l28 -26 -22 -29 c-21 -28 -23 -29 -46 -14 -13
9 -30 28 -38 42 -8 14 -14 20 -15 12 0 -7 25 -40 55 -73 55 -59 63 -80 33 -86
-9 -2 -20 9 -27 26 -7 16 -28 44 -47 63 -25 24 -34 42 -34 65 0 18 5 34 12 36
6 2 9 10 7 17 -8 23 -42 -39 -43 -79 0 -25 9 -52 32 -86 17 -28 32 -60 32 -72
0 -13 6 -22 15 -22 22 0 18 -27 -5 -40 -38 -20 -100 38 -100 94 0 24 -12 41
-59 86 -81 76 -100 120 -66 154 23 22 19 43 -4 22 -30 -27 -44 -71 -36 -113 5
-28 21 -51 60 -89 29 -28 63 -72 75 -98 13 -26 34 -53 49 -61 l26 -15 -30 2
c-19 2 -33 11 -41 26 -6 13 -15 24 -20 24 -23 2 -55 33 -66 64 -14 41 -21 42
-36 9 -20 -44 -14 -72 28 -120 30 -34 40 -55 40 -80 0 -68 35 -105 100 -105
17 0 30 -5 30 -11 0 -6 7 -8 16 -5 10 4 14 1 12 -6 -6 -18 -49 -23 -59 -7 -4
8 -12 10 -16 5 -4 -4 5 -19 20 -32 l29 -25 34 31 c20 17 40 28 45 24 9 -5 -52
-52 -74 -57 -35 -6 -38 -78 -5 -101 32 -23 38 -20 32 14 -4 17 -5 30 -3 30 2
0 26 -11 53 -25 28 -14 67 -25 89 -25 78 0 75 -58 -3 -74 -102 -20 -91 -119
21 -202 27 -20 48 -38 47 -40 -2 -2 -31 4 -63 12 -361 93 -608 542 -515 934
11 47 43 130 69 185 86 176 215 304 396 395 130 65 230 90 377 97 182 9 339
-24 460 -96 44 -26 48 -27 23 -7 -45 39 -144 84 -232 107 -104 27 -308 34
-416 14z m314 -438 c-10 -9 -11 -8 -5 6 3 10 9 15 12 12 3 -3 0 -11 -7 -18z
m64 -57 c3 -5 1 -10 -4 -10 -6 0 -11 5 -11 10 0 6 2 10 4 10 3 0 8 -4 11 -10z
m-220 -10 c3 -5 -1 -10 -9 -10 -8 0 -18 5 -21 10 -3 6 1 10 9 10 8 0 18 -4 21
-10z m-371 -98 c-10 -15 -24 -20 -24 -7 0 3 0 17 0 32 0 26 1 26 17 10 14 -13
15 -21 7 -35z m225 23 c24 -5 30 -10 20 -16 -24 -15 -55 -10 -75 12 -19 21
-19 22 1 16 11 -3 35 -9 54 -12z m131 5 c0 -5 -4 -10 -10 -10 -5 0 -10 5 -10
10 0 6 5 10 10 10 6 0 10 -4 10 -10z m145 -20 c3 -5 1 -10 -4 -10 -6 0 -11 5
-11 10 0 6 2 10 4 10 3 0 8 -4 11 -10z m-419 -102 c11 -9 35 -21 54 -26 l35
-10 -36 -1 c-19 -1 -42 5 -51 12 -22 16 -58 78 -58 97 1 8 9 -1 19 -20 11 -19
27 -43 37 -52z m274 52 c0 -5 -9 -10 -21 -10 -11 0 -17 5 -14 10 3 6 13 10 21
10 8 0 14 -4 14 -10z m290 0 c0 -5 -2 -10 -4 -10 -3 0 -8 5 -11 10 -3 6 -1 10
4 10 6 0 11 -4 11 -10z m-290 -30 c0 -13 -11 -13 -30 0 -12 8 -11 10 8 10 12
0 22 -4 22 -10z m190 -30 c0 -5 -7 -7 -15 -4 -8 4 -15 8 -15 10 0 2 7 4 15 4
8 0 15 -4 15 -10z m-275 -20 c3 -5 2 -10 -4 -10 -5 0 -13 5 -16 10 -3 6 -2 10
4 10 5 0 13 -4 16 -10z m95 -5 c0 -10 -10 -15 -30 -15 -29 0 -38 9 -23 23 13
13 53 7 53 -8z m-283 -40 c2 -7 -12 -11 -33 -11 -32 0 -34 1 -18 13 21 15 45
14 51 -2z m325 -34 c24 -21 23 -34 -3 -26 -15 5 -22 2 -26 -14 -4 -16 -13 -21
-38 -21 -53 0 -65 9 -65 45 0 24 5 35 18 38 29 7 94 -5 114 -22z m-347 9 c3
-5 1 -10 -4 -10 -6 0 -11 5 -11 10 0 6 2 10 4 10 3 0 8 -4 11 -10z m-355 -52
c0 -6 22 -35 50 -63 27 -29 52 -66 56 -81 4 -16 14 -34 23 -41 23 -17 5 -28
-23 -15 -17 7 -29 25 -36 51 -6 22 -28 61 -50 86 -36 41 -56 96 -30 80 6 -3
10 -11 10 -17z m713 -2 c17 -13 24 -36 10 -36 -10 0 -43 32 -43 42 0 12 12 10
33 -6z m-173 -28 c0 -6 -7 -5 -15 2 -8 7 -15 17 -15 22 0 6 7 5 15 -2 8 -7 15
-17 15 -22z m30 17 c8 -10 30 -15 62 -15 45 0 50 -2 62 -31 9 -21 15 -27 19
-18 11 27 38 -22 31 -57 -3 -18 -1 -35 5 -38 13 -8 14 -45 3 -63 -5 -8 -13 -9
-22 -3 -12 7 -12 12 -2 22 6 6 12 18 12 26 0 10 -4 10 -22 -2 -12 -9 -40 -16
-61 -16 -29 0 -43 -6 -61 -27 -20 -23 -26 -25 -39 -15 -8 7 -13 21 -10 33 4
14 9 17 18 9 8 -7 15 -7 19 -2 3 6 -1 13 -9 16 -9 3 -20 17 -25 31 -8 20 -15
25 -30 20 -11 -3 -25 -3 -32 2 -7 4 -23 8 -35 8 -13 0 -22 5 -20 10 2 11 5 11
60 2 22 -3 35 -2 32 4 -4 5 -17 9 -30 9 -13 0 -27 5 -30 10 -8 13 26 13 59 0
20 -7 26 -6 26 4 0 9 -7 12 -18 9 -11 -2 -25 6 -40 26 -22 30 -15 54 8 26 7
-8 23 -14 36 -13 27 3 28 3 14 29 -13 23 2 26 20 4z m-180 -37 c0 -15 -28 -9
-34 8 -11 30 -6 37 14 19 11 -10 20 -22 20 -27z m25 22 c3 -5 -1 -10 -10 -10
-9 0 -13 5 -10 10 3 6 8 10 10 10 2 0 7 -4 10 -10z m66 -30 c10 0 10 -3 2 -11
-7 -7 -19 -8 -30 -4 -10 5 -26 7 -35 6 -25 -3 -22 12 5 25 16 8 25 7 33 -3 6
-7 17 -13 25 -13z m-104 -15 c61 -2 83 -8 70 -21 -3 -3 -25 -2 -49 3 -24 6
-53 6 -63 2 -15 -5 -8 -8 24 -10 25 -2 46 -10 49 -17 6 -20 -95 -5 -125 18
-22 17 -23 19 -6 28 10 6 22 8 28 4 5 -3 38 -7 72 -7z m487 0 c11 -8 28 -15
39 -15 10 0 15 -4 12 -10 -9 -14 -58 -13 -73 2 -13 13 -16 38 -4 38 4 0 16 -7
26 -15z m-490 -76 c-7 -11 -34 -12 -34 -1 0 14 11 21 26 15 8 -3 11 -9 8 -14z
m-101 -3 c7 -16 -1 -26 -20 -26 -7 0 -13 9 -13 20 0 23 25 27 33 6z m57 10 c0
-3 -4 -8 -10 -11 -5 -3 -10 -1 -10 4 0 6 5 11 10 11 6 0 10 -2 10 -4z m98 -13
c2 -8 -5 -13 -17 -13 -12 0 -21 6 -21 16 0 18 31 15 38 -3z m114 -17 c12 -18
9 -26 -10 -26 -10 0 -33 -15 -52 -32 l-33 -33 6 35 c6 31 5 33 -7 18 -16 -22
-30 -23 -22 -3 3 10 -1 15 -12 16 -9 1 -21 2 -27 4 -5 1 -20 3 -33 3 -13 1
-20 7 -17 12 6 9 61 7 153 -5 21 -3 31 -1 27 6 -4 5 -14 9 -23 8 -30 -3 -42 1
-42 12 0 14 82 1 92 -15z m-327 -2 c-19 -15 -17 -15 24 -12 28 1 46 -2 48 -9
6 -17 -44 -28 -76 -17 -31 11 -40 40 -14 47 34 9 38 6 18 -9z m579 1 c3 -9 19
-15 41 -15 36 0 75 -28 75 -52 0 -7 -9 -2 -19 11 -15 20 -28 25 -67 26 -43 0
-49 4 -52 23 -4 25 13 30 22 7z m-385 -41 c5 -4 -20 -64 -26 -64 -2 0 -11 7
-20 16 -14 14 -14 16 6 21 26 7 27 19 1 26 -14 4 -20 0 -20 -13 0 -30 -23 -42
-49 -24 l-22 16 33 18 c28 15 82 18 97 4z m131 -4 c0 -5 -4 -10 -10 -10 -5 0
-10 5 -10 10 0 6 5 10 10 10 6 0 10 -4 10 -10z m138 -27 c13 -30 16 -69 5 -76
-5 -3 -29 0 -55 6 -41 10 -47 14 -42 32 7 21 52 64 69 65 6 0 16 -12 23 -27z
m27 8 c-3 -6 -11 -11 -17 -11 -6 0 -6 6 2 15 14 17 26 13 15 -4z m159 -17 c5
-13 2 -15 -16 -10 -13 3 -29 6 -35 6 -7 0 -13 5 -13 10 0 17 57 11 64 -6z m91
-5 c10 -14 1 -21 -19 -13 -9 3 -13 10 -10 15 7 12 21 11 29 -2z m-670 -19 c3
-5 1 -10 -4 -10 -6 0 -11 5 -11 10 0 6 2 10 4 10 3 0 8 -4 11 -10z m111 -31
c19 -22 19 -22 -3 -10 -13 6 -23 16 -23 21 0 15 5 12 26 -11z m84 11 c9 -5 19
-5 27 2 8 7 13 7 13 0 0 -5 -7 -15 -15 -22 -13 -11 -20 -11 -40 0 -14 7 -25
17 -25 22 0 11 21 10 40 -2z m477 -6 c-3 -3 -12 -4 -19 -1 -8 3 -5 6 6 6 11 1
17 -2 13 -5z m-229 -39 c-3 -3 -9 2 -12 12 -6 14 -5 15 5 6 7 -7 10 -15 7 -18z
m137 15 c3 -6 -5 -10 -19 -10 -14 0 -28 5 -31 10 -3 6 5 10 19 10 14 0 28 -4
31 -10z m-160 -21 c10 -15 -1 -23 -20 -15 -9 3 -13 10 -10 16 8 13 22 13 30
-1z m-262 -5 c11 -11 -3 -24 -18 -18 -8 4 -12 10 -9 15 6 11 18 12 27 3z m57
-14 c0 -5 -4 -10 -10 -10 -5 0 -10 5 -10 10 0 6 5 10 10 10 6 0 10 -4 10 -10z
m220 -14 c0 -2 -8 -10 -17 -17 -16 -13 -17 -12 -4 4 13 16 21 21 21 13z m-69
-23 c13 -16 12 -17 -3 -4 -10 7 -18 15 -18 17 0 8 8 3 21 -13z m-198 -73 c-6
-7 -43 39 -43 54 0 6 11 -2 24 -19 13 -16 22 -32 19 -35z m101 30 c-10 -10
-54 -2 -54 10 0 12 43 18 55 8 5 -5 5 -12 -1 -18z m156 -6 c0 -23 47 -110 82
-151 36 -42 3 -19 -39 27 -29 32 -84 135 -77 143 10 10 34 -4 34 -19z m-160
-64 c-6 -10 -7 -26 -4 -34 10 -26 -13 -18 -40 15 -14 17 -26 34 -26 38 0 3 18
5 40 3 35 -4 38 -6 30 -22z m80 10 c0 -5 -9 -10 -20 -10 -11 0 -20 5 -20 10 0
6 9 10 20 10 11 0 20 -4 20 -10z m-640 -95 c5 3 29 -13 55 -35 231 -200 503
-262 791 -180 37 11 69 18 71 16 8 -8 -124 -46 -207 -61 l-85 -15 100 4 c60 3
90 1 75 -4 -14 -4 -46 -8 -72 -9 -74 -2 -57 -21 17 -21 37 0 65 -4 65 -10 0
-15 -170 -12 -281 5 -115 17 -238 60 -333 117 -72 43 -233 193 -256 238 -8 17
-2 13 20 -13 17 -20 35 -35 40 -32z m460 55 c8 -5 12 -12 8 -15 -10 -10 -49 5
-43 16 8 11 16 11 35 -1z m210 -41 c14 -16 52 -44 84 -64 77 -45 61 -45 -29 1
-75 38 -135 80 -135 93 0 18 57 -4 80 -30z m-143 -52 c10 -9 38 -25 63 -36 34
-16 38 -19 15 -14 -76 15 -181 76 -121 69 14 -1 34 -10 43 -19z m675 -91 c14
-21 8 -23 -34 -15 -24 4 -46 8 -50 9 -18 1 -6 19 15 23 28 5 60 -2 69 -17z"/>
<path d="M1159 1222 c24 -45 83 -48 122 -6 12 13 18 24 13 24 -5 0 -15 -9 -22
-20 -17 -28 -75 -27 -103 3 l-21 22 11 -23z"/>
<path d="M1190 1075 c-16 -19 -14 -21 28 -30 33 -7 38 -1 26 29 -8 20 -38 21
-54 1z"/>
<path d="M605 701 c22 -24 60 -57 85 -73 55 -38 46 -28 -50 52 -59 50 -66 54
-35 21z"/>
<path d="M627 2193 c-4 -3 -1 -14 7 -22 8 -9 21 -29 29 -44 8 -16 17 -24 20
-20 8 12 -47 95 -56 86z"/>
<path d="M570 2151 c0 -5 7 -11 14 -14 10 -4 13 -1 9 9 -6 15 -23 19 -23 5z"/>
<path d="M1893 2121 c-18 -21 -29 -41 -26 -45 3 -3 19 12 36 34 23 33 32 38
43 29 8 -6 14 -19 14 -27 0 -12 3 -13 12 -4 8 8 5 16 -13 31 -13 11 -26 20
-29 20 -3 1 -19 -17 -37 -38z"/>
<path d="M542 2110 c3 -11 19 -15 51 -15 40 0 44 2 32 14 -11 11 -20 12 -38 4
-18 -9 -28 -8 -37 0 -10 9 -11 9 -8 -3z"/>
<path d="M1920 2099 c0 -5 5 -7 10 -4 6 3 10 8 10 11 0 2 -4 4 -10 4 -5 0 -10
-5 -10 -11z"/>
<path d="M495 2064 c9 -9 18 -14 21 -11 9 9 -6 27 -22 27 -13 0 -13 -2 1 -16z"/>
<path d="M453 2059 c-9 -9 -2 -21 24 -50 20 -21 39 -36 44 -33 5 2 -8 20 -28
38 -19 19 -32 39 -29 45 9 14 3 14 -11 0z"/>
<path d="M577 2059 c7 -7 15 -10 18 -7 3 3 -2 9 -12 12 -14 6 -15 5 -6 -5z"/>
<path d="M1890 2064 c0 -1 6 -7 14 -13 10 -8 16 -8 24 1 8 10 4 13 -14 13 -13
0 -24 -1 -24 -1z"/>
<path d="M524 2026 c16 -9 31 -14 34 -11 8 8 0 13 -33 20 l-30 7 29 -16z"/>
<path d="M2037 1989 c-10 -22 -14 -45 -11 -51 4 -6 15 11 25 38 22 56 21 54
11 54 -4 0 -15 -18 -25 -41z"/>
<path d="M2010 2010 c-9 -6 -10 -10 -3 -10 6 0 15 5 18 10 8 12 4 12 -15 0z"/>
<path d="M382 1979 c-13 -16 -20 -29 -15 -29 5 0 23 -14 42 -30 l33 -30 18 22
c22 27 25 44 8 54 -8 5 -9 2 -5 -11 4 -9 2 -24 -4 -31 -9 -11 -17 -9 -46 13
l-35 27 21 17 c12 10 18 20 14 22 -5 2 -18 -9 -31 -24z"/>
<path d="M1975 1990 c3 -5 8 -10 11 -10 2 0 4 5 4 10 0 6 -5 10 -11 10 -5 0
-7 -4 -4 -10z"/>
<path d="M417 1959 c7 -7 15 -10 18 -7 3 3 -2 9 -12 12 -14 6 -15 5 -6 -5z"/>
<path d="M2115 1949 c-11 -12 -14 -19 -7 -15 15 9 15 -2 1 -43 -15 -43 -7 -48
34 -17 18 14 37 23 40 19 4 -3 7 -2 7 4 0 21 -12 20 -37 -3 -33 -30 -38 -25
-23 20 15 48 9 63 -15 35z"/>
<path d="M1000 1955 c0 -5 5 -17 10 -25 5 -8 10 -10 10 -5 0 6 -5 17 -10 25
-5 8 -10 11 -10 5z"/>
<path d="M2075 1920 c-4 -6 -11 -8 -16 -5 -5 4 -9 2 -9 -4 0 -19 16 -19 28 0
7 10 10 19 8 19 -3 0 -8 -5 -11 -10z"/>
<path d="M327 1914 c-3 -4 5 -18 19 -32 13 -15 24 -30 24 -34 0 -10 2 -10 -39
2 -19 5 -39 6 -45 3 -6 -4 14 -12 44 -18 30 -6 57 -10 59 -8 2 1 -10 22 -26
47 -17 25 -33 43 -36 40z"/>
<path d="M2180 1834 c-18 -13 -39 -25 -44 -27 -6 -3 -8 -8 -4 -12 3 -4 23 5
44 19 40 27 54 26 54 -3 0 -26 -26 -44 -55 -39 -30 6 -34 -8 -5 -17 48 -15 88
45 57 86 -11 15 -15 14 -47 -7z"/>
<path d="M940 1816 c0 -2 8 -10 18 -17 15 -13 16 -12 3 4 -13 16 -21 21 -21
13z"/>
<path d="M256 1803 c-3 -4 -6 -11 -6 -16 0 -6 3 -8 6 -4 3 3 23 -5 45 -18 21
-14 40 -21 43 -16 3 5 -8 14 -25 21 -17 7 -37 19 -44 26 -7 7 -15 10 -19 7z"/>
<path d="M220 1729 c0 -5 5 -7 10 -4 6 3 10 8 10 11 0 2 -4 4 -10 4 -5 0 -10
-5 -10 -11z"/>
<path d="M251 1694 c-42 -13 -87 -41 -51 -32 77 20 110 32 110 39 0 11 -4 11
-59 -7z"/>
<path d="M870 1691 c0 -6 4 -13 10 -16 6 -3 7 1 4 9 -7 18 -14 21 -14 7z"/>
<path d="M2253 1672 c-24 -9 -43 -20 -43 -25 0 -5 6 -6 13 -3 6 2 29 10 50 17
20 7 37 16 37 21 0 10 -5 9 -57 -10z"/>
<path d="M260 1644 c0 -1 6 -7 14 -13 10 -9 15 -8 19 3 4 10 0 14 -14 13 -10
-1 -19 -2 -19 -3z"/>
<path d="M2265 1640 c-3 -5 -1 -10 4 -10 6 0 11 5 11 10 0 6 -2 10 -4 10 -3 0
-8 -4 -11 -10z"/>
<path d="M1944 1624 c-18 -14 -18 -14 6 -3 31 14 36 19 24 19 -6 0 -19 -7 -30
-16z"/>
<path d="M2305 1630 c-3 -5 -2 -10 4 -10 5 0 13 5 16 10 3 6 2 10 -4 10 -5 0
-13 -4 -16 -10z"/>
<path d="M170 1610 c0 -6 7 -10 15 -10 8 0 15 2 15 4 0 2 -7 6 -15 10 -8 3
-15 1 -15 -4z"/>
<path d="M2227 1604 c6 -16 19 -18 27 -5 3 5 -3 11 -13 14 -14 3 -18 1 -14 -9z"/>
<path d="M226 1590 c31 -12 39 -30 22 -47 -13 -13 -19 -13 -51 0 -19 9 -38 13
-41 9 -9 -8 -7 -22 2 -20 4 1 25 -1 47 -6 32 -6 41 -4 52 10 7 10 13 21 13 25
0 14 -31 39 -48 38 -13 0 -12 -2 4 -9z"/>
<path d="M581 1582 c-2 -33 32 -83 81 -121 56 -42 78 -74 78 -115 0 -13 8 -30
18 -37 14 -11 15 -11 5 1 -7 8 -13 25 -13 40 0 38 -34 86 -89 125 -36 26 -54
48 -65 78 -8 23 -15 36 -15 29z"/>
<path d="M2272 1564 c-12 -8 -22 -20 -22 -26 0 -6 9 -3 20 7 13 12 29 16 51
13 29 -5 30 -4 14 9 -24 17 -36 17 -63 -3z"/>
<path d="M2250 1516 c0 -2 8 -10 18 -17 15 -13 16 -12 3 4 -13 16 -21 21 -21
13z"/>
<path d="M2335 1510 c-3 -6 1 -7 9 -4 18 7 21 14 7 14 -6 0 -13 -4 -16 -10z"/>
<path d="M2279 1439 c-11 -21 -10 -21 12 -5 28 19 60 21 79 4 12 -11 12 -10 1
5 -20 25 -77 23 -92 -4z"/>
<path d="M210 1425 c7 -9 15 -13 17 -11 7 7 -7 26 -19 26 -6 0 -6 -6 2 -15z"/>
<path d="M1416 1415 c-14 -11 -16 -15 -5 -15 8 0 23 7 33 15 14 11 16 15 5 15
-8 0 -23 -7 -33 -15z"/>
<path d="M2362 1404 c-16 -17 -63 -18 -82 -1 -8 6 -6 2 4 -10 11 -13 27 -23
36 -23 19 0 68 35 60 43 -3 3 -11 -1 -18 -9z"/>
<path d="M124 1378 c-4 -6 -3 -9 2 -6 5 3 30 3 57 -2 26 -4 47 -4 47 0 0 4
-17 10 -37 14 -53 8 -61 8 -69 -6z"/>
<path d="M2280 1326 c0 -9 5 -16 10 -16 6 0 10 4 10 9 0 6 -4 13 -10 16 -5 3
-10 -1 -10 -9z"/>
<path d="M2338 1301 c-44 -34 -58 -52 -40 -51 11 1 97 79 92 83 -3 2 -26 -12
-52 -32z"/>
<path d="M195 1319 c-11 -5 -33 -13 -49 -19 -16 -6 -26 -13 -23 -16 8 -8 97
26 97 37 0 10 1 10 -25 -2z"/>
<path d="M2375 1260 c-3 -5 -1 -10 4 -10 6 0 11 5 11 10 0 6 -2 10 -4 10 -3 0
-8 -4 -11 -10z"/>
<path d="M205 1250 c3 -5 8 -10 11 -10 2 0 4 5 4 10 0 6 -5 10 -11 10 -5 0 -7
-4 -4 -10z"/>
<path d="M202 1205 c-8 -9 -22 -12 -41 -9 -17 4 -32 1 -36 -6 -5 -9 -2 -10 13
-6 11 4 23 2 26 -3 4 -6 18 -3 36 6 17 8 28 19 25 24 -8 11 -7 11 -23 -6z"/>
<path d="M2289 1193 c-13 -15 -12 -15 9 -4 17 9 31 10 54 2 26 -9 29 -9 18 4
-17 20 -64 19 -81 -2z"/>
<path d="M178 1158 c-63 -13 -61 -24 2 -20 35 3 50 8 50 18 0 8 -1 13 -2 13
-2 -1 -24 -6 -50 -11z"/>
<path d="M2280 1152 c0 -27 69 -42 88 -19 9 10 4 12 -24 9 -19 -2 -41 1 -49 8
-10 8 -15 9 -15 2z"/>
<path d="M145 1089 c-11 -16 -1 -19 13 -3 7 8 8 14 3 14 -5 0 -13 -5 -16 -11z"/>
<path d="M2270 1090 c0 -5 5 -10 11 -10 5 0 7 5 4 10 -3 6 -8 10 -11 10 -2 0
-4 -4 -4 -10z"/>
<path d="M188 1068 c-27 -6 -48 -14 -48 -19 0 -5 12 -6 28 -2 15 4 39 8 53 8
17 0 25 4 22 13 -3 6 -6 11 -7 11 0 -1 -22 -6 -48 -11z"/>
<path d="M2305 1056 c-48 -12 -49 -13 -26 -25 13 -7 21 -8 17 -3 -3 6 11 13
34 17 22 4 40 11 40 16 0 10 1 10 -65 -5z"/>
<path d="M150 1020 c0 -6 7 -10 15 -10 8 0 15 2 15 4 0 2 -7 6 -15 10 -8 3
-15 1 -15 -4z"/>
<path d="M2250 1004 c0 -10 3 -15 6 -11 3 3 26 0 50 -8 35 -10 44 -10 44 -1 0
7 -13 13 -29 14 -17 0 -39 6 -50 12 -17 9 -21 8 -21 -6z"/>
<path d="M243 993 c-7 -3 -13 -9 -13 -15 0 -5 -11 -24 -25 -42 -27 -36 -31
-46 -15 -46 6 0 14 8 17 18 4 9 18 32 31 50 25 33 27 43 5 35z"/>
<path d="M160 970 c0 -5 5 -10 11 -10 5 0 7 5 4 10 -3 6 -8 10 -11 10 -2 0 -4
-4 -4 -10z"/>
<path d="M2230 947 c0 -15 88 -48 96 -36 3 5 0 9 -6 9 -6 0 -29 9 -50 19 -26
13 -40 15 -40 8z"/>
<path d="M265 930 c-3 -5 -1 -10 4 -10 6 0 11 5 11 10 0 6 -2 10 -4 10 -3 0
-8 -4 -11 -10z"/>
<path d="M276 881 c-3 -5 3 -11 13 -14 14 -3 18 -1 14 9 -6 16 -19 18 -27 5z"/>
<path d="M2199 863 c-11 -15 -11 -16 1 -5 20 18 47 15 70 -8 11 -11 20 -16 20
-11 0 18 -31 41 -54 41 -13 0 -30 -8 -37 -17z"/>
<path d="M217 853 c-4 -3 -7 -11 -7 -17 0 -6 5 -5 12 2 6 6 9 14 7 17 -3 3 -9
2 -12 -2z"/>
<path d="M255 840 c-3 -5 -2 -10 4 -10 5 0 13 5 16 10 3 6 2 10 -4 10 -5 0
-13 -4 -16 -10z"/>
<path d="M273 817 c-24 -12 -43 -25 -43 -29 0 -5 17 0 38 10 20 11 44 21 52
24 7 2 10 7 5 10 -6 3 -29 -4 -52 -15z"/>
<path d="M2266 805 c-11 -8 -15 -15 -9 -15 6 0 16 7 23 15 16 19 11 19 -14 0z"/>
<path d="M2149 773 c-12 -16 -12 -17 1 -7 8 6 22 14 30 17 13 5 12 6 -1 6 -9
1 -23 -7 -30 -16z"/>
<path d="M340 776 c0 -2 8 -10 18 -17 15 -13 16 -12 3 4 -13 16 -21 21 -21 13z"/>
<path d="M2180 745 c-7 -9 -20 -13 -29 -10 -13 5 -14 4 -3 -7 11 -11 18 -10
43 5 17 9 35 15 40 11 5 -3 9 0 9 5 0 17 -46 13 -60 -4z"/>
<path d="M266 742 c-3 -5 2 -18 10 -30 25 -36 94 -25 94 15 0 8 -8 5 -21 -8
-27 -27 -64 -22 -63 9 1 22 -10 30 -20 14z"/>
<path d="M2190 706 c0 -2 7 -6 15 -10 8 -3 15 -1 15 4 0 6 -7 10 -15 10 -8 0
-15 -2 -15 -4z"/>
<path d="M1768 458 c-30 -32 -35 -48 -17 -48 6 0 13 9 16 20 3 11 9 20 14 20
4 0 3 -13 -2 -30 -6 -16 -17 -30 -25 -30 -17 0 -17 1 -3 -39 6 -17 17 -31 25
-31 11 0 12 4 4 19 -15 29 -13 37 22 76 23 27 33 33 39 23 7 -10 11 -10 21 0
19 19 -4 37 -31 23 -17 -10 -21 -9 -21 3 0 27 -15 24 -42 -6z"/>
<path d="M689 437 c-11 -24 -15 -26 -55 -20 -40 5 -44 4 -44 -15 0 -11 -4 -24
-10 -27 -18 -11 -10 -22 21 -29 31 -6 31 -6 15 -32 -10 -14 -15 -31 -13 -37 2
-7 14 4 26 24 17 30 26 35 46 31 21 -4 24 -1 18 14 -5 13 -3 16 10 11 8 -3 21
0 27 8 9 11 7 17 -9 26 -15 10 -17 17 -9 32 7 13 7 22 -1 30 -7 7 -14 2 -22
-16z m-29 -47 c0 -5 -11 -10 -25 -10 -14 0 -25 5 -25 10 0 6 11 10 25 10 14 0
25 -4 25 -10z"/>
<path d="M1807 402 c-18 -20 -23 -37 -8 -27 5 3 13 0 17 -6 3 -6 0 -15 -7 -20
-7 -4 -10 -11 -6 -16 4 -4 17 -1 28 6 12 7 23 10 26 7 9 -9 -6 -38 -17 -31 -5
3 -10 1 -10 -4 0 -14 47 -14 55 -1 4 6 0 21 -8 34 -14 21 -14 25 1 41 16 17
16 17 -10 11 -21 -5 -28 -3 -28 9 0 20 -13 19 -33 -3z"/>
<path d="M886 337 c7 -19 -22 -40 -55 -40 -24 0 -27 -4 -23 -27 3 -23 -1 -29
-22 -34 -36 -9 -34 -30 3 -23 26 5 28 4 23 -19 -4 -25 -4 -25 27 6 28 29 35
31 72 25 29 -5 40 -4 35 4 -4 6 -16 11 -27 11 -10 0 -19 5 -19 10 0 6 7 10 15
10 21 0 19 28 -4 35 -13 4 -17 12 -13 30 2 14 0 25 -7 25 -5 0 -8 -6 -5 -13z
m14 -57 c0 -5 -5 -10 -11 -10 -5 0 -7 5 -4 10 3 6 8 10 11 10 2 0 4 -4 4 -10z
m-45 -10 c-3 -5 -10 -10 -16 -10 -5 0 -9 5 -9 10 0 6 7 10 16 10 8 0 12 -4 9
-10z"/>
<path d="M1580 311 c0 -16 -7 -34 -15 -41 -14 -12 -14 -15 1 -31 14 -16 14
-19 -5 -38 -15 -15 -17 -22 -7 -30 16 -13 43 5 48 34 2 11 10 19 18 17 53 -12
67 -12 85 3 19 15 18 16 -20 14 -22 -1 -49 -1 -59 0 -19 1 -18 2 2 24 28 30
28 37 -3 37 -16 0 -23 4 -19 14 3 7 -2 16 -10 19 -12 5 -16 0 -16 -22z"/>
<path d="M1168 264 c3 -19 -1 -31 -13 -41 -26 -18 -37 -16 -30 6 8 25 -9 34
-48 27 -31 -6 -32 -8 -32 -54 1 -26 -3 -55 -7 -64 -5 -10 -5 -18 0 -18 5 0 14
12 20 26 12 25 32 25 32 -2 0 -8 5 -14 10 -14 6 0 10 5 10 10 0 6 11 10 25 10
21 0 25 -5 25 -30 0 -16 5 -30 10 -30 9 0 14 44 13 113 0 9 4 17 9 17 5 0 6 6
1 12 -4 7 -7 22 -8 32 0 11 -5 21 -11 23 -7 2 -10 -6 -6 -23z m-68 -64 c0 -16
-5 -30 -11 -30 -6 0 -8 9 -4 23 7 22 7 22 -9 2 -15 -20 -15 -20 -16 1 0 24 8
34 27 34 8 0 13 -12 13 -30z m45 -10 c-3 -5 -14 -10 -23 -10 -15 0 -15 2 -2
10 20 13 33 13 25 0z"/>
<path d="M1322 243 c-23 -28 -29 -49 -12 -38 5 3 7 0 4 -8 -3 -8 -1 -18 5 -21
7 -5 7 -15 1 -32 -12 -32 -12 -34 0 -34 6 0 10 5 10 11 0 6 17 26 37 45 33 31
42 35 73 29 25 -4 31 -3 20 4 -8 6 -23 11 -32 11 -22 0 -23 8 -1 32 24 26 9
33 -34 15 -21 -9 -32 -16 -25 -16 6 -1 12 -7 12 -13 -1 -14 -34 -58 -44 -58
-12 0 -2 65 12 83 8 9 11 17 5 17 -5 0 -19 -12 -31 -27z"/>
<path d="M870 175 c0 -22 4 -34 10 -30 6 3 10 17 10 30 0 13 -4 27 -10 30 -6
4 -10 -8 -10 -30z"/>
<path d="M1404 165 c2 -7 -2 -16 -10 -19 -8 -3 -14 -12 -14 -20 0 -12 7 -14
33 -9 40 7 45 12 28 22 -7 5 -11 13 -7 19 3 5 -4 12 -15 15 -14 4 -19 2 -15
-8z"/>
</g>
</svg>
