<?xml version="1.0" standalone="no"?>
<!DOCTYPE svg PUBLIC "-//W3C//DTD SVG 20010904//EN"
 "http://www.w3.org/TR/2001/REC-SVG-20010904/DTD/svg10.dtd">
<svg version="1.0" xmlns="http://www.w3.org/2000/svg"
 width="360.000000pt" height="360.000000pt" viewBox="0 0 360.000000 360.000000"
 preserveAspectRatio="xMidYMid meet">

<g transform="translate(0.000000,360.000000) scale(0.100000,-0.100000)"
fill="#000000" stroke="none">
<path d="M1593 3589 c-605 -71 -1146 -454 -1413 -1002 -391 -803 -126 -1782
619 -2280 602 -404 1400 -404 2002 0 671 448 960 1288 709 2056 -150 456 -493
849 -924 1057 -302 146 -664 207 -993 169z m430 -64 c376 -49 708 -210 981
-475 199 -193 326 -384 422 -631 153 -398 150 -865 -10 -1262 -210 -519 -653
-906 -1194 -1041 -156 -39 -247 -50 -422 -50 -175 0 -266 11 -422 50 -437 109
-819 388 -1057 771 -342 553 -348 1245 -13 1808 68 114 170 241 288 355 382
371 902 544 1427 475z"/>
<path d="M1704 3425 c17 -16 26 -32 22 -41 -3 -9 -6 -45 -6 -81 0 -56 -3 -66
-20 -70 -37 -10 -20 -23 30 -23 28 0 50 2 50 5 0 3 -9 14 -20 25 -16 16 -20
33 -20 80 0 33 4 60 9 60 4 0 37 -38 72 -85 87 -114 99 -113 99 9 0 103 5 126
26 126 8 0 14 5 14 10 0 6 -24 10 -52 10 -53 0 -53 -1 -30 -18 20 -16 23 -25
20 -77 l-3 -59 -59 77 -59 77 -50 0 -50 0 27 -25z"/>
<path d="M1453 3417 c-44 -10 -58 -27 -23 -27 23 0 33 -17 53 -92 17 -67 8
-96 -37 -111 -39 -13 -61 12 -86 98 -18 64 -18 70 -3 87 19 21 13 22 -42 7
-69 -18 -69 -17 -47 -37 11 -9 28 -47 37 -84 10 -37 27 -75 37 -85 26 -23 97
-22 133 1 42 28 48 57 26 142 -16 64 -17 76 -5 89 15 15 18 26 7 24 -5 -1 -27
-6 -50 -12z"/>
<path d="M2161 3395 c15 -15 15 -23 -4 -98 -20 -84 -33 -111 -47 -102 -5 3
-11 1 -14 -4 -6 -9 115 -44 123 -35 2 2 -3 10 -12 17 -18 13 -18 12 19 145 12
42 19 52 37 53 19 1 18 2 -8 14 -17 7 -48 16 -70 20 -37 7 -39 6 -24 -10z"/>
<path d="M2450 3305 c12 -15 9 -136 -6 -221 -10 -56 20 -52 100 14 90 75 123
95 136 87 5 -3 10 -2 10 4 0 13 -80 55 -88 47 -3 -4 2 -12 12 -19 16 -12 13
-18 -39 -65 -31 -29 -60 -52 -64 -52 -4 0 -4 30 0 68 5 37 8 73 8 81 1 8 8 11
21 8 35 -9 22 7 -29 36 -56 31 -81 36 -61 12z"/>
<path d="M792 3111 c-90 -58 -104 -136 -37 -207 28 -29 39 -34 79 -34 55 0 88
19 127 73 l29 39 -20 26 c-12 15 -18 33 -15 44 9 28 -6 22 -55 -23 -34 -30
-40 -39 -23 -36 14 3 30 -4 45 -20 l23 -25 -28 -24 c-34 -29 -57 -25 -100 15
-61 56 -74 119 -32 147 24 15 29 15 65 1 30 -12 40 -12 40 -3 0 12 -41 57 -51
55 -2 0 -23 -13 -47 -28z"/>
<path d="M1585 3114 c-279 -47 -525 -174 -725 -374 -268 -267 -400 -605 -387
-985 7 -209 50 -379 138 -553 186 -363 517 -617 922 -704 145 -31 389 -31 534
0 405 87 736 341 922 704 150 295 181 654 86 983 -120 413 -476 769 -890 890
-185 54 -423 69 -600 39z m475 -49 c252 -56 470 -174 650 -355 184 -184 301
-401 357 -660 25 -119 25 -382 -1 -500 -159 -733 -871 -1180 -1587 -996 -476
121 -838 503 -945 996 -26 118 -26 381 -1 500 54 253 170 472 346 650 202 206
428 323 721 376 99 17 358 11 460 -11z"/>
<path d="M1555 3000 c-432 -91 -777 -396 -915 -808 -50 -152 -63 -246 -57
-432 5 -190 29 -299 96 -451 153 -348 446 -593 830 -697 88 -23 113 -26 291
-26 178 0 203 3 291 26 53 14 131 40 173 57 350 140 625 455 723 828 35 133
44 383 18 518 -93 503 -466 883 -964 985 -133 27 -357 27 -486 0z m105 -185
c58 -30 60 -43 60 -387 0 -370 1 -366 -97 -394 -227 -65 -448 -244 -622 -502
-65 -97 -127 -113 -180 -46 -32 41 -26 73 30 154 114 166 256 314 394 413 70
49 237 137 262 137 10 0 13 25 13 110 0 61 -2 110 -5 110 -3 0 -33 -10 -67
-21 -126 -43 -289 -136 -421 -241 -72 -57 -135 -50 -163 17 -21 50 -3 86 69
143 154 121 318 211 484 264 l103 33 0 61 c0 80 16 122 54 145 38 23 48 23 86
4z m361 -1 c40 -20 59 -68 59 -146 l0 -63 103 -33 c166 -53 330 -143 484 -264
72 -57 90 -93 69 -143 -28 -67 -91 -74 -163 -17 -132 105 -295 198 -421 241
-34 11 -64 21 -67 21 -3 0 -5 -49 -5 -110 0 -85 3 -110 13 -110 25 0 192 -88
262 -137 138 -99 280 -247 394 -413 56 -81 62 -113 30 -154 -53 -67 -115 -51
-180 46 -173 257 -395 437 -620 502 -98 28 -94 11 -97 379 -3 351 -1 366 52
398 38 23 48 23 87 3z m-169 -835 c24 -13 48 -67 48 -108 0 -27 4 -30 64 -48
111 -34 192 -88 302 -197 55 -56 122 -134 149 -175 60 -91 154 -278 155 -306
0 -37 -37 -83 -72 -90 -63 -12 -83 5 -139 117 -73 145 -131 232 -212 316 -76
78 -139 123 -205 146 l-42 15 0 -90 c0 -50 4 -99 10 -109 5 -10 29 -29 53 -43
105 -62 208 -214 262 -390 24 -76 26 -91 15 -117 -17 -40 -46 -60 -90 -60 -49
0 -77 32 -96 106 -25 97 -82 203 -138 260 -85 84 -147 84 -232 0 -56 -57 -113
-163 -138 -260 -19 -74 -47 -106 -96 -106 -44 0 -73 20 -90 60 -11 26 -9 41
15 117 54 176 157 328 262 390 24 14 48 33 53 43 6 10 10 59 10 109 l0 90 -42
-15 c-66 -23 -129 -68 -205 -146 -81 -84 -139 -171 -212 -316 -56 -112 -76
-129 -139 -117 -35 7 -72 53 -72 90 1 28 95 215 155 306 27 41 94 119 149 175
110 109 191 163 302 197 60 18 64 21 64 48 0 40 24 94 47 108 24 14 79 14 105
0z"/>
<path d="M2829 3072 c8 -15 -3 -31 -56 -90 -53 -59 -68 -70 -79 -61 -19 16
-32 2 -13 -15 8 -7 45 -41 82 -75 l69 -63 24 23 c33 31 30 40 -7 27 -28 -10
-34 -8 -62 21 l-32 31 32 32 c28 27 34 30 48 18 11 -9 14 -22 10 -37 -7 -30 3
-29 37 4 34 33 39 59 7 42 -18 -9 -25 -8 -40 8 -19 19 -19 19 11 48 l30 29 25
-24 c16 -15 25 -34 25 -54 l0 -30 23 23 22 23 -73 69 c-73 69 -102 86 -83 51z"/>
<path d="M506 2830 l-26 -39 29 5 c23 5 40 -1 77 -27 l47 -34 -34 -2 c-178
-13 -173 -12 -197 -48 -28 -44 -28 -47 3 -33 22 10 32 6 92 -39 49 -36 68 -55
67 -71 -1 -31 10 -27 41 14 27 36 28 57 0 34 -12 -10 -23 -7 -64 19 -82 53
-84 61 -10 62 100 2 174 13 174 26 0 7 -37 39 -83 73 -68 49 -82 64 -77 80 11
33 -11 22 -39 -20z"/>
<path d="M3113 2779 c5 -17 -8 -29 -71 -70 -56 -37 -82 -49 -99 -44 -22 5 -22
4 8 -45 31 -51 48 -63 45 -34 -1 18 50 61 61 51 3 -4 -4 -32 -16 -62 l-23 -54
25 -41 c13 -22 26 -37 30 -34 3 3 4 11 1 18 -8 21 33 121 47 117 51 -15 68
-12 84 13 21 31 15 50 -41 138 -45 69 -61 84 -51 47z m57 -89 c22 -40 -27 -83
-70 -60 -11 6 -20 15 -20 20 0 7 68 60 77 60 1 0 7 -9 13 -20z"/>
<path d="M283 2450 c-47 -111 -47 -109 -14 -88 16 10 34 6 103 -23 60 -25 83
-40 82 -52 -3 -34 14 -15 35 39 26 68 26 67 2 52 -28 -17 -188 45 -194 76 -3
20 -4 20 -14 -4z"/>
<path d="M3263 2388 c-26 -12 -43 -56 -43 -107 0 -34 -14 -61 -31 -61 -17 0
-39 33 -39 59 0 16 10 40 21 55 12 15 19 29 17 31 -6 7 -78 -17 -78 -26 0 -4
5 -11 10 -14 6 -3 10 -22 10 -41 0 -75 60 -130 112 -103 32 17 38 28 38 76 0
80 28 114 64 77 22 -22 20 -38 -10 -74 -32 -38 -27 -46 20 -30 32 10 35 15 30
38 -14 65 -27 93 -51 112 -29 22 -38 23 -70 8z"/>
<path d="M177 2123 c-5 -51 -1 -66 12 -44 6 9 18 1 45 -30 41 -48 44 -59 17
-59 -34 0 -71 19 -71 37 0 39 -18 -6 -25 -62 -7 -59 -7 -60 13 -42 17 16 27
17 88 7 102 -15 114 -19 114 -35 0 -8 5 -15 10 -15 6 0 10 10 10 23 0 12 3 40
6 62 6 37 5 39 -10 25 -15 -15 -96 -16 -96 -1 0 3 25 20 56 36 57 30 74 54 74
103 l0 26 -27 -26 c-30 -27 -114 -78 -129 -78 -14 0 -64 81 -64 102 0 38 -18
16 -23 -29z"/>
<path d="M3420 2028 c0 -24 -10 -28 -106 -39 -78 -9 -88 -8 -100 8 -12 16 -13
15 -13 -12 0 -16 4 -48 9 -70 7 -34 9 -37 15 -18 7 22 17 25 138 38 47 5 58 4
63 -9 13 -35 22 -13 17 42 -5 52 -23 99 -23 60z"/>
<path d="M340 1740 l-35 -7 27 -11 c31 -13 48 -40 48 -75 0 -28 -16 -37 -66
-37 -27 0 -34 4 -34 19 0 11 10 27 22 35 30 22 18 29 -36 21 -42 -7 -65 -25
-31 -25 16 0 39 -36 31 -49 -3 -5 -24 -11 -45 -13 -37 -3 -40 -1 -45 27 -5 21
-1 37 14 57 l21 28 -32 0 c-31 0 -31 -1 -26 -37 4 -21 9 -68 13 -105 6 -65 19
-88 26 -50 3 14 21 19 96 28 87 9 94 9 103 -9 6 -10 13 -17 15 -14 6 6 -17
211 -25 218 -3 3 -22 2 -41 -1z"/>
<path d="M3380 1725 c0 -4 11 -16 25 -27 14 -11 25 -29 25 -40 0 -19 -4 -20
-62 -14 -126 14 -140 18 -146 40 -6 20 -6 20 -13 -4 -4 -14 -7 -45 -8 -69 -1
-39 1 -42 12 -27 11 15 21 16 107 6 52 -7 97 -13 98 -15 10 -10 -12 -44 -36
-55 -25 -12 -26 -13 -7 -21 48 -19 50 -15 63 102 7 62 11 113 10 114 -8 7 -68
16 -68 10z"/>
<path d="M3123 1307 c-28 -71 -29 -85 -5 -64 15 13 21 14 48 2 34 -14 114
-111 114 -138 0 -28 15 -19 28 16 15 42 15 54 0 39 -7 -7 -15 -12 -19 -12 -8
0 -63 79 -58 84 2 2 25 7 52 10 44 7 47 6 47 -15 0 -31 12 -15 38 50 24 59 22
73 -5 49 -10 -9 -47 -20 -82 -26 -77 -14 -127 2 -133 40 -2 18 -8 9 -25 -35z"/>
<path d="M270 1337 c-36 -18 -36 -55 -3 -148 29 -81 39 -95 45 -57 2 17 21 29
87 55 81 33 84 33 104 16 19 -18 19 -17 12 7 -4 14 -17 45 -28 70 -18 42 -20
43 -26 21 -4 -15 -19 -30 -38 -38 -31 -12 -33 -12 -49 22 -26 55 -62 73 -104
52z m85 -67 c10 -11 16 -22 14 -24 -7 -6 -81 -36 -90 -36 -19 0 -8 49 13 64
29 21 41 20 63 -4z"/>
<path d="M1130 506 c0 -10 9 -16 25 -16 14 0 25 -4 25 -9 0 -5 -16 -43 -35
-85 -33 -73 -36 -76 -62 -70 -43 10 -17 -10 50 -40 31 -14 57 -21 57 -16 0 5
-8 13 -17 19 -16 8 -14 18 26 103 23 51 45 99 48 106 4 8 -6 12 -33 12 -22 0
-49 3 -61 6 -17 5 -23 2 -23 -10z"/>
<path d="M2339 491 c-16 -16 -29 -39 -29 -50 0 -21 27 -55 50 -63 10 -3 10 -9
-1 -26 -12 -19 -12 -26 1 -50 13 -22 24 -28 58 -30 36 -3 47 1 72 27 20 20 30
39 30 60 0 33 -30 71 -55 71 -11 0 -14 7 -9 24 16 67 -62 92 -117 37z m76 -7
c26 -27 15 -49 -25 -49 -26 0 -36 5 -38 19 -2 11 4 26 14 33 23 17 29 16 49
-3z m53 -116 c36 -36 -11 -93 -57 -69 -20 11 -30 59 -14 74 11 11 58 8 71 -5z"/>
<path d="M1562 400 c-12 -5 -28 -21 -34 -36 -10 -21 -9 -31 4 -55 16 -27 16
-28 -3 -34 -24 -8 -35 -49 -21 -80 12 -27 68 -47 104 -38 58 14 85 79 49 117
-20 21 -20 22 -1 34 20 12 26 47 12 69 -8 13 -56 33 -75 32 -7 0 -22 -4 -35
-9z m68 -30 c16 -16 18 -25 10 -40 -12 -23 -23 -25 -51 -10 -21 12 -25 40 -7
58 17 17 25 15 48 -8z m-20 -120 c25 -25 25 -42 0 -65 -18 -17 -21 -17 -45 -1
-27 18 -33 54 -13 74 17 17 35 15 58 -8z"/>
<path d="M1965 398 c-11 -6 -26 -18 -32 -26 -18 -22 -16 -87 3 -106 17 -18 79
-22 89 -6 12 20 22 10 17 -17 -6 -34 -29 -62 -62 -76 -21 -8 -22 -11 -7 -14
23 -6 75 25 101 60 25 33 29 110 7 149 -22 42 -75 59 -116 36z m61 -32 c19
-30 15 -65 -8 -80 -36 -22 -74 56 -43 88 22 22 32 20 51 -8z"/>
</g>
</svg>
