<?xml version="1.0" standalone="no"?>
<!DOCTYPE svg PUBLIC "-//W3C//DTD SVG 20010904//EN"
 "http://www.w3.org/TR/2001/REC-SVG-20010904/DTD/svg10.dtd">
<svg version="1.0" xmlns="http://www.w3.org/2000/svg"
 width="108.000000pt" height="108.000000pt" viewBox="0 0 108.000000 108.000000"
 preserveAspectRatio="xMidYMid meet">

<g transform="translate(0.000000,108.000000) scale(0.100000,-0.100000)"
fill="#000000" stroke="none">
<path d="M434 1035 c-380 -82 -530 -548 -269 -834 155 -169 390 -214 602 -115
78 37 190 149 227 227 144 306 -26 653 -352 723 -81 17 -128 17 -208 -1z m83
-60 c-2 -36 -16 -49 -18 -17 0 13 -2 12 -9 -5 -13 -32 -44 -23 -48 15 -3 25 1
31 20 35 55 10 58 9 55 -28z m133 -15 c0 -4 -6 -13 -14 -19 -17 -14 -46 -4
-46 16 0 8 -5 11 -11 7 -8 -5 -8 -1 0 14 6 11 16 22 23 25 12 4 48 -28 48 -43z
m-260 5 c11 -13 10 -15 -6 -9 -18 5 -18 5 0 -10 11 -9 14 -16 8 -16 -7 0 -12
-7 -12 -15 0 -18 -9 -19 -30 -4 -13 9 -13 10 2 6 17 -6 19 16 3 30 -4 4 -5 3
-1 -4 4 -7 0 -11 -12 -10 -18 1 -27 26 -10 28 4 1 12 2 17 3 5 0 13 4 17 9 10
9 10 9 24 -8z m360 0 c17 -9 30 -17 30 -20 0 -2 -10 -14 -22 -26 -13 -12 -16
-18 -8 -14 11 6 12 5 4 -4 -12 -13 -47 -4 -38 10 3 5 -5 9 -18 9 -13 0 -18 3
-12 8 6 4 14 17 18 30 9 26 9 26 46 7z m-70 -78 c40 -15 73 -38 121 -86 82
-83 111 -149 111 -261 0 -112 -29 -178 -111 -261 -83 -82 -149 -111 -261 -111
-112 0 -178 29 -261 111 -82 83 -111 149 -111 261 0 103 28 174 99 250 110
119 259 154 413 97z m-388 -20 c6 -12 6 -17 0 -13 -16 10 -41 -4 -35 -20 8
-21 -20 -8 -35 17 -7 11 -10 25 -6 31 4 7 10 5 16 -6 5 -9 17 -16 26 -16 16 1
16 1 0 11 -10 5 -15 16 -11 25 6 17 27 4 45 -29z m585 -21 c-7 -6 -20 -17 -30
-25 -15 -12 -17 -12 -11 4 5 13 4 16 -4 11 -8 -4 -10 -2 -6 7 3 8 0 18 -6 22
-6 3 -9 2 -8 -3 4 -13 -16 -16 -20 -4 -2 6 7 20 19 31 l23 21 27 -26 c21 -20
25 -29 16 -38z m-682 -56 c-3 -6 1 -7 9 -4 20 8 20 -1 -1 -36 -13 -24 -20 -27
-35 -19 -10 6 -16 14 -13 19 3 6 -1 7 -9 4 -20 -8 -20 1 1 36 13 24 20 27 35
19 10 -6 16 -14 13 -19z m739 8 c26 -27 27 -48 2 -58 -13 -5 -26 -15 -29 -22
-4 -9 -6 -9 -6 2 -1 9 6 26 15 39 16 22 16 22 -5 10 -13 -9 -23 -10 -28 -4 -5
6 -6 9 -4 8 2 -2 10 6 18 17 17 23 20 24 37 8z m-785 -140 c5 -13 5 -24 0 -26
-5 -2 -9 -11 -9 -19 0 -10 -6 -13 -16 -9 -9 3 -19 6 -24 6 -13 0 -17 43 -5 57
16 20 45 15 54 -9z m841 19 c0 -1 4 -17 10 -35 8 -29 7 -32 -6 -21 -12 9 -13
9 -9 -2 3 -10 -3 -14 -20 -15 -14 -1 -22 2 -19 8 4 6 0 14 -7 19 -10 6 -11 9
-1 9 19 0 14 20 -5 21 -10 1 -4 5 12 9 37 9 45 11 45 7z m-870 -107 c0 -5 -7
-10 -16 -10 -8 0 -12 5 -9 10 3 6 10 10 16 10 5 0 9 -4 9 -10z m870 0 c0 -5
-7 -10 -15 -10 -8 0 -15 5 -15 10 0 6 7 10 15 10 8 0 15 -4 15 -10z m-13 -59
c12 10 16 10 23 -1 5 -8 6 -19 3 -24 -4 -6 -8 -5 -11 2 -3 10 -7 10 -19 1 -12
-10 -16 -10 -23 1 -5 8 -6 19 -3 24 4 6 8 5 11 -2 3 -10 7 -10 19 -1z m-849
-8 c-10 -2 -26 -2 -35 0 -10 3 -2 5 17 5 19 0 27 -2 18 -5z m12 -21 c0 -4 -5
-13 -12 -20 -9 -9 -8 -12 8 -13 11 -1 7 -4 -11 -8 -37 -9 -42 -6 -25 14 10 12
9 15 -6 16 -18 0 -18 1 1 9 26 11 45 12 45 2z m851 -31 c-8 -5 -10 -14 -6 -21
5 -8 3 -11 -6 -8 -8 3 -13 10 -12 16 2 6 -4 9 -12 6 -8 -4 -15 -1 -15 4 0 6
12 12 28 14 33 4 41 0 23 -11z m-833 -42 c3 -12 2 -12 -6 0 -8 11 -12 10 -21
-8 -13 -24 -31 -20 -31 7 0 13 2 14 9 4 7 -11 10 -10 15 3 7 19 28 16 34 -6z
m798 -29 c8 0 14 5 14 10 0 6 4 10 10 10 5 0 7 -7 4 -15 -4 -8 -16 -15 -29
-15 -24 0 -40 24 -28 43 5 8 9 4 11 -10 2 -13 10 -23 18 -23z m-776 -20 c0 -3
-15 -5 -33 -6 -29 -1 -30 0 -9 9 12 5 22 15 22 21 0 10 20 -13 20 -24z m766
-47 c-1 -1 -15 2 -32 6 -16 5 -21 10 -12 10 12 1 15 6 11 19 -4 10 2 8 14 -8
12 -14 20 -26 19 -27z m24 27 c0 -5 -2 -10 -4 -10 -3 0 -8 5 -11 10 -3 6 -1
10 4 10 6 0 11 -4 11 -10z m-766 -24 c14 -23 14 -25 -2 -24 -9 0 -26 -3 -37
-7 -17 -6 -17 -5 3 9 25 19 30 41 7 32 -44 -18 -51 -18 -31 -2 27 22 41 20 60
-8z m679 -25 c-5 -21 11 -36 29 -25 8 5 6 9 -7 14 -10 4 -14 9 -9 13 6 3 16 2
24 -3 11 -7 11 -11 1 -24 -8 -9 -20 -16 -27 -16 -8 0 -14 -9 -14 -20 0 -26
-27 -37 -46 -18 -19 18 -8 48 17 48 12 0 19 7 19 18 0 16 8 32 16 32 1 0 0 -8
-3 -19z m-673 -26 c-17 -20 -5 -32 15 -15 14 11 19 10 35 -6 18 -19 18 -19 -7
-38 l-25 -19 16 25 c20 30 11 42 -17 23 -27 -19 -51 -2 -36 26 5 10 15 19 21
19 7 0 6 -5 -2 -15z m106 -67 c5 -7 2 -9 -9 -5 -12 4 -14 2 -10 -10 5 -12 3
-14 -7 -8 -10 6 -12 4 -7 -8 3 -10 2 -17 -3 -17 -17 0 -21 19 -8 40 14 22 33
26 44 8z m524 -10 c12 4 13 2 2 -9 -10 -11 -16 -11 -33 -1 -19 12 -20 11 -15
-6 4 -12 0 -24 -9 -32 -13 -11 -19 -11 -32 3 -20 20 -10 47 17 47 11 0 20 5
20 12 0 7 6 6 18 -4 9 -9 24 -13 32 -10z m-454 -33 c7 -18 -13 -45 -33 -45
-17 0 -27 24 -19 45 7 20 45 19 52 0z m348 -11 c4 -15 5 -29 1 -32 -3 -3 -5 0
-5 6 0 19 -20 14 -20 -5 -1 -14 -4 -12 -15 7 -18 31 -19 48 -3 32 17 -17 31
-15 24 3 -3 8 -2 15 3 15 5 0 12 -12 15 -26z m-312 -1 c-10 -4 -10 -8 -1 -19
9 -11 8 -14 -4 -14 -8 0 -18 -6 -20 -12 -4 -8 -6 -7 -6 4 -2 28 10 48 28 47
11 0 12 -2 3 -6z m240 -5 c-19 -19 -14 -36 11 -41 20 -4 20 -4 -4 -6 -18 -1
-29 6 -37 22 -10 22 -11 22 -11 -5 -1 -26 -21 -42 -21 -17 0 19 21 50 30 44 5
-3 11 -1 15 5 3 5 11 10 18 10 8 0 8 -3 -1 -12z m-132 -21 c0 -7 -9 -20 -20
-30 -19 -16 -20 -16 -20 13 0 23 4 30 20 30 11 0 20 -6 20 -13z m31 4 c-11 -7
-10 -11 4 -19 21 -11 12 -32 -13 -32 -15 0 -15 2 -2 11 11 8 12 12 3 16 -19 7
-15 33 5 33 13 0 14 -2 3 -9z m39 -1 c0 -5 -2 -10 -4 -10 -3 0 -8 5 -11 10 -3
6 -1 10 4 10 6 0 11 -4 11 -10z"/>
<path d="M607 983 c-14 -13 -6 -33 13 -33 11 0 20 4 20 9 0 13 -26 32 -33 24z"/>
<path d="M527 727 c-9 -75 -29 -112 -69 -133 -40 -21 -102 -13 -134 17 -23 22
-24 22 -24 3 0 -28 46 -117 73 -141 12 -11 36 -29 52 -39 l30 -18 -31 35 c-33
36 -64 80 -64 89 0 4 21 6 48 6 92 0 135 57 130 171 l-3 68 -8 -58z"/>
<path d="M560 637 c-1 -40 69 -97 119 -97 12 0 21 -4 21 -9 0 -12 -53 -53 -97
-75 -44 -22 -63 -63 -62 -133 l1 -58 8 42 c13 62 25 79 84 117 60 38 102 88
122 143 21 59 17 65 -22 38 -20 -14 -50 -25 -66 -25 -35 0 -83 24 -97 47 -6
10 -11 14 -11 10z"/>
<path d="M840 870 c9 -17 30 -20 30 -4 0 3 -4 2 -10 -1 -5 -3 -10 1 -10 9 0 9
-5 16 -10 16 -7 0 -7 -7 0 -20z"/>
<path d="M105 660 c-3 -5 3 -10 15 -10 12 0 18 5 15 10 -3 6 -10 10 -15 10 -5
0 -12 -4 -15 -10z"/>
<path d="M100 630 c0 -5 7 -10 16 -10 8 0 12 5 9 10 -3 6 -10 10 -16 10 -5 0
-9 -4 -9 -10z"/>
<path d="M842 234 c1 -9 9 -19 16 -22 9 -3 13 2 10 14 -1 9 -9 19 -16 22 -9 3
-13 -2 -10 -14z"/>
<path d="M752 168 c3 -7 12 -14 21 -16 12 -2 15 1 11 12 -7 19 -38 22 -32 4z"/>
<path d="M345 150 c-8 -13 4 -32 16 -25 12 8 12 35 0 35 -6 0 -13 -4 -16 -10z"/>
<path d="M500 109 c0 -5 5 -7 10 -4 6 3 10 8 10 11 0 2 -4 4 -10 4 -5 0 -10
-5 -10 -11z"/>
</g>
</svg>
